<?xml version="1.0" encoding="UTF-8" standalone="no"?>
<!DOCTYPE svg PUBLIC "-//W3C//DTD SVG 1.1//EN"
 "http://www.w3.org/Graphics/SVG/1.1/DTD/svg11.dtd">
<!-- Generated by graphviz version 2.40.1 (20161225.0304)
 -->
<!-- Title: %3 Pages: 1 -->
<svg width="1089pt" height="681pt"
 viewBox="0.00 0.00 1089.20 680.88" xmlns="http://www.w3.org/2000/svg" xmlns:xlink="http://www.w3.org/1999/xlink">
<g id="graph0" class="graph" transform="scale(1 1) rotate(0) translate(4 676.8754)">
<title>%3</title>
<polygon fill="#ffffff" stroke="transparent" points="-4,4 -4,-676.8754 1085.1961,-676.8754 1085.1961,4 -4,4"/>
<!-- 5987879591308040564 -->
<g id="node1" class="node">
<title>5987879591308040564</title>
<ellipse fill="none" stroke="#000000" cx="27" cy="-401.8835" rx="23.2963" ry="23.2963"/>
<text text-anchor="middle" x="27" y="-398.1835" font-family="Times,serif" font-size="14.00" fill="#000000">add</text>
</g>
<!-- 1914016412596576935 -->
<g id="node2" class="node">
<title>1914016412596576935</title>
<polygon fill="none" stroke="#000000" points="54,-518.0796 0,-518.0796 0,-482.0796 54,-482.0796 54,-518.0796"/>
<text text-anchor="middle" x="27" y="-496.3796" font-family="Times,serif" font-size="14.00" fill="#000000">(0, 0)</text>
</g>
<!-- 5987879591308040564&#45;&gt;1914016412596576935 -->
<g id="edge1" class="edge">
<title>5987879591308040564&#45;&gt;1914016412596576935</title>
<path fill="none" stroke="#000000" d="M27,-425.654C27,-439.6304 27,-457.3775 27,-472.0358"/>
<polygon fill="#000000" stroke="#000000" points="23.5001,-472.0653 27,-482.0653 30.5001,-472.0654 23.5001,-472.0653"/>
</g>
<!-- &#45;8696855060251732693 -->
<g id="node3" class="node">
<title>&#45;8696855060251732693</title>
<polygon fill="none" stroke="#000000" points="85,-321.6874 31,-321.6874 31,-285.6874 85,-285.6874 85,-321.6874"/>
<text text-anchor="middle" x="58" y="-299.9874" font-family="Times,serif" font-size="14.00" fill="#000000">(0, 0)</text>
</g>
<!-- &#45;8696855060251732693&#45;&gt;5987879591308040564 -->
<g id="edge2" class="edge">
<title>&#45;8696855060251732693&#45;&gt;5987879591308040564</title>
<path fill="none" stroke="#000000" d="M52.3141,-321.6981C48.0986,-335.0513 42.2378,-353.6161 37.217,-369.52"/>
<polygon fill="#000000" stroke="#000000" points="33.7376,-368.9155 34.0647,-379.5053 40.4129,-371.0229 33.7376,-368.9155"/>
</g>
<!-- &#45;6875154694321465138 -->
<g id="node4" class="node">
<title>&#45;6875154694321465138</title>
<polygon fill="none" stroke="#000000" points="58,-125.2953 4,-125.2953 4,-89.2953 58,-89.2953 58,-125.2953"/>
<text text-anchor="middle" x="31" y="-103.5953" font-family="Times,serif" font-size="14.00" fill="#000000">(0, 0)</text>
</g>
<!-- &#45;6875154694321465138&#45;&gt;5987879591308040564 -->
<g id="edge3" class="edge">
<title>&#45;6875154694321465138&#45;&gt;5987879591308040564</title>
<path fill="none" stroke="#000000" d="M23.7561,-125.4587C20.0288,-135.7823 15.8812,-149.055 14,-161.2953 2.7111,-234.748 13.352,-322.1222 20.9216,-368.7188"/>
<polygon fill="#000000" stroke="#000000" points="17.5135,-369.5582 22.6228,-378.8396 24.4167,-368.3978 17.5135,-369.5582"/>
</g>
<!-- 8877910748399248224 -->
<g id="node46" class="node">
<title>8877910748399248224</title>
<ellipse fill="none" stroke="#000000" cx="67" cy="-205.4913" rx="44.393" ry="44.393"/>
<text text-anchor="middle" x="67" y="-201.7913" font-family="Times,serif" font-size="14.00" fill="#000000">transpose</text>
</g>
<!-- &#45;6875154694321465138&#45;&gt;8877910748399248224 -->
<g id="edge38" class="edge">
<title>&#45;6875154694321465138&#45;&gt;8877910748399248224</title>
<path fill="none" stroke="#000000" d="M37.603,-125.3059C40.649,-133.6146 44.4348,-143.941 48.265,-154.3886"/>
<polygon fill="#000000" stroke="#000000" points="45.0469,-155.7788 51.7752,-163.963 51.6191,-153.3693 45.0469,-155.7788"/>
</g>
<!-- 4948486251778314739 -->
<g id="node5" class="node">
<title>4948486251778314739</title>
<ellipse fill="none" stroke="#000000" cx="215" cy="-577.4775" rx="23.2963" ry="23.2963"/>
<text text-anchor="middle" x="215" y="-573.7775" font-family="Times,serif" font-size="14.00" fill="#000000">add</text>
</g>
<!-- 1914016412597741984 -->
<g id="node6" class="node">
<title>1914016412597741984</title>
<polygon fill="none" stroke="#000000" points="242,-672.8754 188,-672.8754 188,-636.8754 242,-636.8754 242,-672.8754"/>
<text text-anchor="middle" x="215" y="-651.1754" font-family="Times,serif" font-size="14.00" fill="#000000">(0, 1)</text>
</g>
<!-- 4948486251778314739&#45;&gt;1914016412597741984 -->
<g id="edge4" class="edge">
<title>4948486251778314739&#45;&gt;1914016412597741984</title>
<path fill="none" stroke="#000000" d="M215,-601.12C215,-609.122 215,-618.1416 215,-626.4742"/>
<polygon fill="#000000" stroke="#000000" points="211.5001,-626.5332 215,-636.5332 218.5001,-626.5332 211.5001,-626.5332"/>
</g>
<!-- &#45;8696855060250567644 -->
<g id="node7" class="node">
<title>&#45;8696855060250567644</title>
<polygon fill="none" stroke="#000000" points="317,-518.0796 263,-518.0796 263,-482.0796 317,-482.0796 317,-518.0796"/>
<text text-anchor="middle" x="290" y="-496.3796" font-family="Times,serif" font-size="14.00" fill="#000000">(0, 1)</text>
</g>
<!-- &#45;8696855060250567644&#45;&gt;4948486251778314739 -->
<g id="edge5" class="edge">
<title>&#45;8696855060250567644&#45;&gt;4948486251778314739</title>
<path fill="none" stroke="#000000" d="M272.226,-518.4218C262.1602,-528.8095 249.4434,-541.9328 238.5555,-553.1689"/>
<polygon fill="#000000" stroke="#000000" points="235.8104,-550.9722 231.3649,-560.5893 240.8374,-555.8435 235.8104,-550.9722"/>
</g>
<!-- &#45;6875154694322630187 -->
<g id="node8" class="node">
<title>&#45;6875154694322630187</title>
<polygon fill="none" stroke="#000000" points="202,-125.2953 148,-125.2953 148,-89.2953 202,-89.2953 202,-125.2953"/>
<text text-anchor="middle" x="175" y="-103.5953" font-family="Times,serif" font-size="14.00" fill="#000000">(0, 1)</text>
</g>
<!-- &#45;6875154694322630187&#45;&gt;4948486251778314739 -->
<g id="edge6" class="edge">
<title>&#45;6875154694322630187&#45;&gt;4948486251778314739</title>
<path fill="none" stroke="#000000" d="M168.3805,-125.5759C164.8485,-135.9362 160.6883,-149.2065 158,-161.2953 144.1403,-223.6191 139,-239.8411 139,-303.6874 139,-303.6874 139,-303.6874 139,-401.8835 139,-455.948 151.6517,-469.3166 175,-518.0796 180.3984,-529.3542 187.7267,-540.9352 194.6362,-550.8426"/>
<polygon fill="#000000" stroke="#000000" points="191.8664,-552.986 200.5413,-559.0686 197.5529,-548.9039 191.8664,-552.986"/>
</g>
<!-- 5604441113441206961 -->
<g id="node49" class="node">
<title>5604441113441206961</title>
<ellipse fill="none" stroke="#000000" cx="211" cy="-205.4913" rx="44.393" ry="44.393"/>
<text text-anchor="middle" x="211" y="-201.7913" font-family="Times,serif" font-size="14.00" fill="#000000">transpose</text>
</g>
<!-- &#45;6875154694322630187&#45;&gt;5604441113441206961 -->
<g id="edge44" class="edge">
<title>&#45;6875154694322630187&#45;&gt;5604441113441206961</title>
<path fill="none" stroke="#000000" d="M181.603,-125.3059C184.649,-133.6146 188.4348,-143.941 192.265,-154.3886"/>
<polygon fill="#000000" stroke="#000000" points="189.0469,-155.7788 195.7752,-163.963 195.6191,-153.3693 189.0469,-155.7788"/>
</g>
<!-- 4749613852641077314 -->
<g id="node9" class="node">
<title>4749613852641077314</title>
<ellipse fill="none" stroke="#000000" cx="441" cy="-401.8835" rx="23.2963" ry="23.2963"/>
<text text-anchor="middle" x="441" y="-398.1835" font-family="Times,serif" font-size="14.00" fill="#000000">add</text>
</g>
<!-- 1914016412598907033 -->
<g id="node10" class="node">
<title>1914016412598907033</title>
<polygon fill="none" stroke="#000000" points="468,-518.0796 414,-518.0796 414,-482.0796 468,-482.0796 468,-518.0796"/>
<text text-anchor="middle" x="441" y="-496.3796" font-family="Times,serif" font-size="14.00" fill="#000000">(0, 2)</text>
</g>
<!-- 4749613852641077314&#45;&gt;1914016412598907033 -->
<g id="edge7" class="edge">
<title>4749613852641077314&#45;&gt;1914016412598907033</title>
<path fill="none" stroke="#000000" d="M441,-425.654C441,-439.6304 441,-457.3775 441,-472.0358"/>
<polygon fill="#000000" stroke="#000000" points="437.5001,-472.0653 441,-482.0653 444.5001,-472.0654 437.5001,-472.0653"/>
</g>
<!-- &#45;6875154694323795236 -->
<g id="node11" class="node">
<title>&#45;6875154694323795236</title>
<polygon fill="none" stroke="#000000" points="554,-321.6874 500,-321.6874 500,-285.6874 554,-285.6874 554,-321.6874"/>
<text text-anchor="middle" x="527" y="-299.9874" font-family="Times,serif" font-size="14.00" fill="#000000">(0, 2)</text>
</g>
<!-- &#45;6875154694323795236&#45;&gt;4749613852641077314 -->
<g id="edge8" class="edge">
<title>&#45;6875154694323795236&#45;&gt;4749613852641077314</title>
<path fill="none" stroke="#000000" d="M507.7141,-322.0891C497.3677,-332.2651 484.6016,-345.321 474,-357.6874 469.4775,-362.9627 464.8675,-368.7983 460.583,-374.4527"/>
<polygon fill="#000000" stroke="#000000" points="457.7425,-372.4072 454.5865,-382.5211 463.3608,-376.5827 457.7425,-372.4072"/>
</g>
<!-- &#45;308569305811333342 -->
<g id="node52" class="node">
<title>&#45;308569305811333342</title>
<ellipse fill="none" stroke="#000000" cx="527" cy="-401.8835" rx="44.393" ry="44.393"/>
<text text-anchor="middle" x="527" y="-398.1835" font-family="Times,serif" font-size="14.00" fill="#000000">transpose</text>
</g>
<!-- &#45;6875154694323795236&#45;&gt;&#45;308569305811333342 -->
<g id="edge50" class="edge">
<title>&#45;6875154694323795236&#45;&gt;&#45;308569305811333342</title>
<path fill="none" stroke="#000000" d="M527,-321.6981C527,-329.0984 527,-338.0993 527,-347.3609"/>
<polygon fill="#000000" stroke="#000000" points="523.5001,-347.4495 527,-357.4496 530.5001,-347.4496 523.5001,-347.4495"/>
</g>
<!-- &#45;8696855060249402595 -->
<g id="node12" class="node">
<title>&#45;8696855060249402595</title>
<polygon fill="none" stroke="#000000" points="468,-321.6874 414,-321.6874 414,-285.6874 468,-285.6874 468,-321.6874"/>
<text text-anchor="middle" x="441" y="-299.9874" font-family="Times,serif" font-size="14.00" fill="#000000">(0, 2)</text>
</g>
<!-- &#45;8696855060249402595&#45;&gt;4749613852641077314 -->
<g id="edge9" class="edge">
<title>&#45;8696855060249402595&#45;&gt;4749613852641077314</title>
<path fill="none" stroke="#000000" d="M441,-321.6981C441,-334.6542 441,-352.5165 441,-368.0943"/>
<polygon fill="#000000" stroke="#000000" points="437.5001,-368.4255 441,-378.4255 444.5001,-368.4255 437.5001,-368.4255"/>
</g>
<!-- 3977392001639910501 -->
<g id="node13" class="node">
<title>3977392001639910501</title>
<ellipse fill="none" stroke="#000000" cx="211" cy="-401.8835" rx="23.2963" ry="23.2963"/>
<text text-anchor="middle" x="211" y="-398.1835" font-family="Times,serif" font-size="14.00" fill="#000000">add</text>
</g>
<!-- 1914017673793575758 -->
<g id="node14" class="node">
<title>1914017673793575758</title>
<polygon fill="none" stroke="#000000" points="238,-518.0796 184,-518.0796 184,-482.0796 238,-482.0796 238,-518.0796"/>
<text text-anchor="middle" x="211" y="-496.3796" font-family="Times,serif" font-size="14.00" fill="#000000">(1, 0)</text>
</g>
<!-- 3977392001639910501&#45;&gt;1914017673793575758 -->
<g id="edge10" class="edge">
<title>3977392001639910501&#45;&gt;1914017673793575758</title>
<path fill="none" stroke="#000000" d="M211,-425.654C211,-439.6304 211,-457.3775 211,-472.0358"/>
<polygon fill="#000000" stroke="#000000" points="207.5001,-472.0653 211,-482.0653 214.5001,-472.0654 207.5001,-472.0653"/>
</g>
<!-- &#45;8696853799054733870 -->
<g id="node15" class="node">
<title>&#45;8696853799054733870</title>
<polygon fill="none" stroke="#000000" points="238,-321.6874 184,-321.6874 184,-285.6874 238,-285.6874 238,-321.6874"/>
<text text-anchor="middle" x="211" y="-299.9874" font-family="Times,serif" font-size="14.00" fill="#000000">(1, 0)</text>
</g>
<!-- &#45;8696853799054733870&#45;&gt;3977392001639910501 -->
<g id="edge11" class="edge">
<title>&#45;8696853799054733870&#45;&gt;3977392001639910501</title>
<path fill="none" stroke="#000000" d="M211,-321.6981C211,-334.6542 211,-352.5165 211,-368.0943"/>
<polygon fill="#000000" stroke="#000000" points="207.5001,-368.4255 211,-378.4255 214.5001,-368.4255 207.5001,-368.4255"/>
</g>
<!-- &#45;6875155955518463961 -->
<g id="node16" class="node">
<title>&#45;6875155955518463961</title>
<polygon fill="none" stroke="#000000" points="324,-321.6874 270,-321.6874 270,-285.6874 324,-285.6874 324,-321.6874"/>
<text text-anchor="middle" x="297" y="-299.9874" font-family="Times,serif" font-size="14.00" fill="#000000">(1, 0)</text>
</g>
<!-- &#45;6875155955518463961&#45;&gt;3977392001639910501 -->
<g id="edge12" class="edge">
<title>&#45;6875155955518463961&#45;&gt;3977392001639910501</title>
<path fill="none" stroke="#000000" d="M277.7141,-322.0891C267.3677,-332.2651 254.6016,-345.321 244,-357.6874 239.4775,-362.9627 234.8675,-368.7983 230.583,-374.4527"/>
<polygon fill="#000000" stroke="#000000" points="227.7425,-372.4072 224.5865,-382.5211 233.3608,-376.5827 227.7425,-372.4072"/>
</g>
<!-- 7198162067562218799 -->
<g id="node47" class="node">
<title>7198162067562218799</title>
<ellipse fill="none" stroke="#000000" cx="297" cy="-401.8835" rx="44.393" ry="44.393"/>
<text text-anchor="middle" x="297" y="-398.1835" font-family="Times,serif" font-size="14.00" fill="#000000">transpose</text>
</g>
<!-- &#45;6875155955518463961&#45;&gt;7198162067562218799 -->
<g id="edge40" class="edge">
<title>&#45;6875155955518463961&#45;&gt;7198162067562218799</title>
<path fill="none" stroke="#000000" d="M297,-321.6981C297,-329.0984 297,-338.0993 297,-347.3609"/>
<polygon fill="#000000" stroke="#000000" points="293.5001,-347.4495 297,-357.4496 300.5001,-347.4496 293.5001,-347.4495"/>
</g>
<!-- &#45;4884144011207018474 -->
<g id="node17" class="node">
<title>&#45;4884144011207018474</title>
<ellipse fill="none" stroke="#000000" cx="631" cy="-401.8835" rx="23.2963" ry="23.2963"/>
<text text-anchor="middle" x="631" y="-398.1835" font-family="Times,serif" font-size="14.00" fill="#000000">add</text>
</g>
<!-- 1914017673792410709 -->
<g id="node18" class="node">
<title>1914017673792410709</title>
<polygon fill="none" stroke="#000000" points="658,-518.0796 604,-518.0796 604,-482.0796 658,-482.0796 658,-518.0796"/>
<text text-anchor="middle" x="631" y="-496.3796" font-family="Times,serif" font-size="14.00" fill="#000000">(1, 1)</text>
</g>
<!-- &#45;4884144011207018474&#45;&gt;1914017673792410709 -->
<g id="edge13" class="edge">
<title>&#45;4884144011207018474&#45;&gt;1914017673792410709</title>
<path fill="none" stroke="#000000" d="M631,-425.654C631,-439.6304 631,-457.3775 631,-472.0358"/>
<polygon fill="#000000" stroke="#000000" points="627.5001,-472.0653 631,-482.0653 634.5001,-472.0654 627.5001,-472.0653"/>
</g>
<!-- &#45;6875155955517298912 -->
<g id="node19" class="node">
<title>&#45;6875155955517298912</title>
<polygon fill="none" stroke="#000000" points="648,-125.2953 594,-125.2953 594,-89.2953 648,-89.2953 648,-125.2953"/>
<text text-anchor="middle" x="621" y="-103.5953" font-family="Times,serif" font-size="14.00" fill="#000000">(1, 1)</text>
</g>
<!-- &#45;6875155955517298912&#45;&gt;&#45;4884144011207018474 -->
<g id="edge14" class="edge">
<title>&#45;6875155955517298912&#45;&gt;&#45;4884144011207018474</title>
<path fill="none" stroke="#000000" d="M613.7561,-125.4587C610.0288,-135.7823 605.8812,-149.055 604,-161.2953 592.6032,-235.4499 610.2264,-323.1626 621.9413,-369.4738"/>
<polygon fill="#000000" stroke="#000000" points="618.5786,-370.4499 624.4827,-379.2472 625.3533,-368.6881 618.5786,-370.4499"/>
</g>
<!-- 6733536536329897986 -->
<g id="node50" class="node">
<title>6733536536329897986</title>
<ellipse fill="none" stroke="#000000" cx="657" cy="-205.4913" rx="44.393" ry="44.393"/>
<text text-anchor="middle" x="657" y="-201.7913" font-family="Times,serif" font-size="14.00" fill="#000000">transpose</text>
</g>
<!-- &#45;6875155955517298912&#45;&gt;6733536536329897986 -->
<g id="edge46" class="edge">
<title>&#45;6875155955517298912&#45;&gt;6733536536329897986</title>
<path fill="none" stroke="#000000" d="M627.603,-125.3059C630.649,-133.6146 634.4348,-143.941 638.265,-154.3886"/>
<polygon fill="#000000" stroke="#000000" points="635.0469,-155.7788 641.7752,-163.963 641.6191,-153.3693 635.0469,-155.7788"/>
</g>
<!-- &#45;8696853799055898919 -->
<g id="node20" class="node">
<title>&#45;8696853799055898919</title>
<polygon fill="none" stroke="#000000" points="676,-321.6874 622,-321.6874 622,-285.6874 676,-285.6874 676,-321.6874"/>
<text text-anchor="middle" x="649" y="-299.9874" font-family="Times,serif" font-size="14.00" fill="#000000">(1, 1)</text>
</g>
<!-- &#45;8696853799055898919&#45;&gt;&#45;4884144011207018474 -->
<g id="edge15" class="edge">
<title>&#45;8696853799055898919&#45;&gt;&#45;4884144011207018474</title>
<path fill="none" stroke="#000000" d="M645.6985,-321.6981C643.2841,-334.8696 639.9402,-353.1119 637.0517,-368.8694"/>
<polygon fill="#000000" stroke="#000000" points="633.5942,-368.32 635.2337,-378.7872 640.4795,-369.5822 633.5942,-368.32"/>
</g>
<!-- &#45;3557002830287160249 -->
<g id="node21" class="node">
<title>&#45;3557002830287160249</title>
<ellipse fill="none" stroke="#000000" cx="804" cy="-577.4775" rx="23.2963" ry="23.2963"/>
<text text-anchor="middle" x="804" y="-573.7775" font-family="Times,serif" font-size="14.00" fill="#000000">add</text>
</g>
<!-- 1914017673791245660 -->
<g id="node22" class="node">
<title>1914017673791245660</title>
<polygon fill="none" stroke="#000000" points="831,-672.8754 777,-672.8754 777,-636.8754 831,-636.8754 831,-672.8754"/>
<text text-anchor="middle" x="804" y="-651.1754" font-family="Times,serif" font-size="14.00" fill="#000000">(1, 2)</text>
</g>
<!-- &#45;3557002830287160249&#45;&gt;1914017673791245660 -->
<g id="edge16" class="edge">
<title>&#45;3557002830287160249&#45;&gt;1914017673791245660</title>
<path fill="none" stroke="#000000" d="M804,-601.12C804,-609.122 804,-618.1416 804,-626.4742"/>
<polygon fill="#000000" stroke="#000000" points="800.5001,-626.5332 804,-636.5332 807.5001,-626.5332 800.5001,-626.5332"/>
</g>
<!-- &#45;8696853799057063968 -->
<g id="node23" class="node">
<title>&#45;8696853799057063968</title>
<polygon fill="none" stroke="#000000" points="907,-518.0796 853,-518.0796 853,-482.0796 907,-482.0796 907,-518.0796"/>
<text text-anchor="middle" x="880" y="-496.3796" font-family="Times,serif" font-size="14.00" fill="#000000">(1, 2)</text>
</g>
<!-- &#45;8696853799057063968&#45;&gt;&#45;3557002830287160249 -->
<g id="edge17" class="edge">
<title>&#45;8696853799057063968&#45;&gt;&#45;3557002830287160249</title>
<path fill="none" stroke="#000000" d="M861.9891,-518.4218C851.789,-528.8095 838.9027,-541.9328 827.8696,-553.1689"/>
<polygon fill="#000000" stroke="#000000" points="825.0922,-551.0019 820.5831,-560.5893 830.0868,-555.9063 825.0922,-551.0019"/>
</g>
<!-- &#45;6875155955516133863 -->
<g id="node24" class="node">
<title>&#45;6875155955516133863</title>
<polygon fill="none" stroke="#000000" points="792,-125.2953 738,-125.2953 738,-89.2953 792,-89.2953 792,-125.2953"/>
<text text-anchor="middle" x="765" y="-103.5953" font-family="Times,serif" font-size="14.00" fill="#000000">(1, 2)</text>
</g>
<!-- &#45;6875155955516133863&#45;&gt;&#45;3557002830287160249 -->
<g id="edge18" class="edge">
<title>&#45;6875155955516133863&#45;&gt;&#45;3557002830287160249</title>
<path fill="none" stroke="#000000" d="M758.3805,-125.5759C754.8485,-135.9362 750.6883,-149.2065 748,-161.2953 734.1403,-223.6191 729,-239.8411 729,-303.6874 729,-303.6874 729,-303.6874 729,-401.8835 729,-458.1792 762.0051,-517.0577 784.2257,-550.3184"/>
<polygon fill="#000000" stroke="#000000" points="781.3575,-552.3247 789.8931,-558.6012 787.1346,-548.3718 781.3575,-552.3247"/>
</g>
<!-- &#45;1348127068885521967 -->
<g id="node53" class="node">
<title>&#45;1348127068885521967</title>
<ellipse fill="none" stroke="#000000" cx="801" cy="-205.4913" rx="44.393" ry="44.393"/>
<text text-anchor="middle" x="801" y="-201.7913" font-family="Times,serif" font-size="14.00" fill="#000000">transpose</text>
</g>
<!-- &#45;6875155955516133863&#45;&gt;&#45;1348127068885521967 -->
<g id="edge52" class="edge">
<title>&#45;6875155955516133863&#45;&gt;&#45;1348127068885521967</title>
<path fill="none" stroke="#000000" d="M771.603,-125.3059C774.649,-133.6146 778.4348,-143.941 782.265,-154.3886"/>
<polygon fill="#000000" stroke="#000000" points="779.0469,-155.7788 785.7752,-163.963 785.6191,-153.3693 779.0469,-155.7788"/>
</g>
<!-- 7059074100901573046 -->
<g id="node25" class="node">
<title>7059074100901573046</title>
<ellipse fill="none" stroke="#000000" cx="445" cy="-577.4775" rx="23.2963" ry="23.2963"/>
<text text-anchor="middle" x="445" y="-573.7775" font-family="Times,serif" font-size="14.00" fill="#000000">add</text>
</g>
<!-- 1914018934990574581 -->
<g id="node26" class="node">
<title>1914018934990574581</title>
<polygon fill="none" stroke="#000000" points="472,-672.8754 418,-672.8754 418,-636.8754 472,-636.8754 472,-672.8754"/>
<text text-anchor="middle" x="445" y="-651.1754" font-family="Times,serif" font-size="14.00" fill="#000000">(2, 0)</text>
</g>
<!-- 7059074100901573046&#45;&gt;1914018934990574581 -->
<g id="edge19" class="edge">
<title>7059074100901573046&#45;&gt;1914018934990574581</title>
<path fill="none" stroke="#000000" d="M445,-601.12C445,-609.122 445,-618.1416 445,-626.4742"/>
<polygon fill="#000000" stroke="#000000" points="441.5001,-626.5332 445,-636.5332 448.5001,-626.5332 441.5001,-626.5332"/>
</g>
<!-- &#45;8696852537857735047 -->
<g id="node27" class="node">
<title>&#45;8696852537857735047</title>
<polygon fill="none" stroke="#000000" points="547,-518.0796 493,-518.0796 493,-482.0796 547,-482.0796 547,-518.0796"/>
<text text-anchor="middle" x="520" y="-496.3796" font-family="Times,serif" font-size="14.00" fill="#000000">(2, 0)</text>
</g>
<!-- &#45;8696852537857735047&#45;&gt;7059074100901573046 -->
<g id="edge20" class="edge">
<title>&#45;8696852537857735047&#45;&gt;7059074100901573046</title>
<path fill="none" stroke="#000000" d="M502.226,-518.4218C492.1602,-528.8095 479.4434,-541.9328 468.5555,-553.1689"/>
<polygon fill="#000000" stroke="#000000" points="465.8104,-550.9722 461.3649,-560.5893 470.8374,-555.8435 465.8104,-550.9722"/>
</g>
<!-- &#45;6875152171927467492 -->
<g id="node28" class="node">
<title>&#45;6875152171927467492</title>
<polygon fill="none" stroke="#000000" points="432,-125.2953 378,-125.2953 378,-89.2953 432,-89.2953 432,-125.2953"/>
<text text-anchor="middle" x="405" y="-103.5953" font-family="Times,serif" font-size="14.00" fill="#000000">(2, 0)</text>
</g>
<!-- &#45;6875152171927467492&#45;&gt;7059074100901573046 -->
<g id="edge21" class="edge">
<title>&#45;6875152171927467492&#45;&gt;7059074100901573046</title>
<path fill="none" stroke="#000000" d="M398.3805,-125.5759C394.8485,-135.9362 390.6883,-149.2065 388,-161.2953 374.1403,-223.6191 369,-239.8411 369,-303.6874 369,-303.6874 369,-303.6874 369,-401.8835 369,-455.948 381.6517,-469.3166 405,-518.0796 410.3984,-529.3542 417.7267,-540.9352 424.6362,-550.8426"/>
<polygon fill="#000000" stroke="#000000" points="421.8664,-552.986 430.5413,-559.0686 427.5529,-548.9039 421.8664,-552.986"/>
</g>
<!-- &#45;2981256171798051042 -->
<g id="node48" class="node">
<title>&#45;2981256171798051042</title>
<ellipse fill="none" stroke="#000000" cx="441" cy="-205.4913" rx="44.393" ry="44.393"/>
<text text-anchor="middle" x="441" y="-201.7913" font-family="Times,serif" font-size="14.00" fill="#000000">transpose</text>
</g>
<!-- &#45;6875152171927467492&#45;&gt;&#45;2981256171798051042 -->
<g id="edge42" class="edge">
<title>&#45;6875152171927467492&#45;&gt;&#45;2981256171798051042</title>
<path fill="none" stroke="#000000" d="M411.603,-125.3059C414.649,-133.6146 418.4348,-143.941 422.265,-154.3886"/>
<polygon fill="#000000" stroke="#000000" points="419.0469,-155.7788 425.7752,-163.963 425.6191,-153.3693 419.0469,-155.7788"/>
</g>
<!-- &#45;3355587895379971195 -->
<g id="node29" class="node">
<title>&#45;3355587895379971195</title>
<ellipse fill="none" stroke="#000000" cx="801" cy="-401.8835" rx="23.2963" ry="23.2963"/>
<text text-anchor="middle" x="801" y="-398.1835" font-family="Times,serif" font-size="14.00" fill="#000000">add</text>
</g>
<!-- 1914018934991739630 -->
<g id="node30" class="node">
<title>1914018934991739630</title>
<polygon fill="none" stroke="#000000" points="828,-518.0796 774,-518.0796 774,-482.0796 828,-482.0796 828,-518.0796"/>
<text text-anchor="middle" x="801" y="-496.3796" font-family="Times,serif" font-size="14.00" fill="#000000">(2, 1)</text>
</g>
<!-- &#45;3355587895379971195&#45;&gt;1914018934991739630 -->
<g id="edge22" class="edge">
<title>&#45;3355587895379971195&#45;&gt;1914018934991739630</title>
<path fill="none" stroke="#000000" d="M801,-425.654C801,-439.6304 801,-457.3775 801,-472.0358"/>
<polygon fill="#000000" stroke="#000000" points="797.5001,-472.0653 801,-482.0653 804.5001,-472.0654 797.5001,-472.0653"/>
</g>
<!-- &#45;8696852537856569998 -->
<g id="node31" class="node">
<title>&#45;8696852537856569998</title>
<polygon fill="none" stroke="#000000" points="828,-321.6874 774,-321.6874 774,-285.6874 828,-285.6874 828,-321.6874"/>
<text text-anchor="middle" x="801" y="-299.9874" font-family="Times,serif" font-size="14.00" fill="#000000">(2, 1)</text>
</g>
<!-- &#45;8696852537856569998&#45;&gt;&#45;3355587895379971195 -->
<g id="edge23" class="edge">
<title>&#45;8696852537856569998&#45;&gt;&#45;3355587895379971195</title>
<path fill="none" stroke="#000000" d="M801,-321.6981C801,-334.6542 801,-352.5165 801,-368.0943"/>
<polygon fill="#000000" stroke="#000000" points="797.5001,-368.4255 801,-378.4255 804.5001,-368.4255 797.5001,-368.4255"/>
</g>
<!-- &#45;6875152171928632541 -->
<g id="node32" class="node">
<title>&#45;6875152171928632541</title>
<polygon fill="none" stroke="#000000" points="914,-321.6874 860,-321.6874 860,-285.6874 914,-285.6874 914,-321.6874"/>
<text text-anchor="middle" x="887" y="-299.9874" font-family="Times,serif" font-size="14.00" fill="#000000">(2, 1)</text>
</g>
<!-- &#45;6875152171928632541&#45;&gt;&#45;3355587895379971195 -->
<g id="edge24" class="edge">
<title>&#45;6875152171928632541&#45;&gt;&#45;3355587895379971195</title>
<path fill="none" stroke="#000000" d="M867.7141,-322.0891C857.3677,-332.2651 844.6016,-345.321 834,-357.6874 829.4775,-362.9627 824.8675,-368.7983 820.583,-374.4527"/>
<polygon fill="#000000" stroke="#000000" points="817.7425,-372.4072 814.5865,-382.5211 823.3608,-376.5827 817.7425,-372.4072"/>
</g>
<!-- &#45;929070728018675789 -->
<g id="node51" class="node">
<title>&#45;929070728018675789</title>
<ellipse fill="none" stroke="#000000" cx="887" cy="-401.8835" rx="44.393" ry="44.393"/>
<text text-anchor="middle" x="887" y="-398.1835" font-family="Times,serif" font-size="14.00" fill="#000000">transpose</text>
</g>
<!-- &#45;6875152171928632541&#45;&gt;&#45;929070728018675789 -->
<g id="edge48" class="edge">
<title>&#45;6875152171928632541&#45;&gt;&#45;929070728018675789</title>
<path fill="none" stroke="#000000" d="M887,-321.6981C887,-329.0984 887,-338.0993 887,-347.3609"/>
<polygon fill="#000000" stroke="#000000" points="883.5001,-347.4495 887,-357.4496 890.5001,-347.4496 883.5001,-347.4495"/>
</g>
<!-- &#45;8902861146437856520 -->
<g id="node33" class="node">
<title>&#45;8902861146437856520</title>
<ellipse fill="none" stroke="#000000" cx="986" cy="-401.8835" rx="23.2963" ry="23.2963"/>
<text text-anchor="middle" x="986" y="-398.1835" font-family="Times,serif" font-size="14.00" fill="#000000">add</text>
</g>
<!-- 1914018934988244483 -->
<g id="node34" class="node">
<title>1914018934988244483</title>
<polygon fill="none" stroke="#000000" points="1013,-518.0796 959,-518.0796 959,-482.0796 1013,-482.0796 1013,-518.0796"/>
<text text-anchor="middle" x="986" y="-496.3796" font-family="Times,serif" font-size="14.00" fill="#000000">(2, 2)</text>
</g>
<!-- &#45;8902861146437856520&#45;&gt;1914018934988244483 -->
<g id="edge25" class="edge">
<title>&#45;8902861146437856520&#45;&gt;1914018934988244483</title>
<path fill="none" stroke="#000000" d="M986,-425.654C986,-439.6304 986,-457.3775 986,-472.0358"/>
<polygon fill="#000000" stroke="#000000" points="982.5001,-472.0653 986,-482.0653 989.5001,-472.0654 982.5001,-472.0653"/>
</g>
<!-- &#45;6875152171925137394 -->
<g id="node35" class="node">
<title>&#45;6875152171925137394</title>
<polygon fill="none" stroke="#000000" points="1028,-125.2953 974,-125.2953 974,-89.2953 1028,-89.2953 1028,-125.2953"/>
<text text-anchor="middle" x="1001" y="-103.5953" font-family="Times,serif" font-size="14.00" fill="#000000">(2, 2)</text>
</g>
<!-- &#45;6875152171925137394&#45;&gt;&#45;8902861146437856520 -->
<g id="edge26" class="edge">
<title>&#45;6875152171925137394&#45;&gt;&#45;8902861146437856520</title>
<path fill="none" stroke="#000000" d="M993.7561,-125.4587C990.0288,-135.7823 985.8812,-149.055 984,-161.2953 972.7566,-234.452 978.0362,-321.6019 982.352,-368.3234"/>
<polygon fill="#000000" stroke="#000000" points="978.8878,-368.8635 983.3347,-378.4799 985.8553,-368.1892 978.8878,-368.8635"/>
</g>
<!-- &#45;8091894940952885292 -->
<g id="node54" class="node">
<title>&#45;8091894940952885292</title>
<ellipse fill="none" stroke="#000000" cx="1037" cy="-205.4913" rx="44.393" ry="44.393"/>
<text text-anchor="middle" x="1037" y="-201.7913" font-family="Times,serif" font-size="14.00" fill="#000000">transpose</text>
</g>
<!-- &#45;6875152171925137394&#45;&gt;&#45;8091894940952885292 -->
<g id="edge54" class="edge">
<title>&#45;6875152171925137394&#45;&gt;&#45;8091894940952885292</title>
<path fill="none" stroke="#000000" d="M1007.603,-125.3059C1010.649,-133.6146 1014.4348,-143.941 1018.265,-154.3886"/>
<polygon fill="#000000" stroke="#000000" points="1015.0469,-155.7788 1021.7752,-163.963 1021.6191,-153.3693 1015.0469,-155.7788"/>
</g>
<!-- &#45;8696852537860065145 -->
<g id="node36" class="node">
<title>&#45;8696852537860065145</title>
<polygon fill="none" stroke="#000000" points="1055,-321.6874 1001,-321.6874 1001,-285.6874 1055,-285.6874 1055,-321.6874"/>
<text text-anchor="middle" x="1028" y="-299.9874" font-family="Times,serif" font-size="14.00" fill="#000000">(2, 2)</text>
</g>
<!-- &#45;8696852537860065145&#45;&gt;&#45;8902861146437856520 -->
<g id="edge27" class="edge">
<title>&#45;8696852537860065145&#45;&gt;&#45;8902861146437856520</title>
<path fill="none" stroke="#000000" d="M1020.2966,-321.6981C1014.4523,-335.3619 1006.2742,-354.4825 999.3696,-370.6253"/>
<polygon fill="#000000" stroke="#000000" points="995.982,-369.6455 995.2674,-380.2162 1002.4181,-372.3983 995.982,-369.6455"/>
</g>
<!-- &#45;8156970403634648603 -->
<g id="node37" class="node">
<title>&#45;8156970403634648603</title>
<ellipse fill="none" stroke="#000000" cx="31" cy="-26.6476" rx="26.7961" ry="26.7961"/>
<text text-anchor="middle" x="31" y="-22.9476" font-family="Times,serif" font-size="14.00" fill="#000000">ones</text>
</g>
<!-- &#45;8156970403634648603&#45;&gt;&#45;6875154694321465138 -->
<g id="edge28" class="edge">
<title>&#45;8156970403634648603&#45;&gt;&#45;6875154694321465138</title>
<path fill="none" stroke="#000000" d="M31,-53.5021C31,-61.7499 31,-70.8471 31,-79.1771"/>
<polygon fill="#000000" stroke="#000000" points="27.5001,-79.1963 31,-89.1964 34.5001,-79.1964 27.5001,-79.1963"/>
</g>
<!-- &#45;3157607801948807274 -->
<g id="node38" class="node">
<title>&#45;3157607801948807274</title>
<ellipse fill="none" stroke="#000000" cx="175" cy="-26.6476" rx="26.7961" ry="26.7961"/>
<text text-anchor="middle" x="175" y="-22.9476" font-family="Times,serif" font-size="14.00" fill="#000000">ones</text>
</g>
<!-- &#45;3157607801948807274&#45;&gt;&#45;6875154694322630187 -->
<g id="edge29" class="edge">
<title>&#45;3157607801948807274&#45;&gt;&#45;6875154694322630187</title>
<path fill="none" stroke="#000000" d="M175,-53.5021C175,-61.7499 175,-70.8471 175,-79.1771"/>
<polygon fill="#000000" stroke="#000000" points="171.5001,-79.1963 175,-89.1964 178.5001,-79.1964 171.5001,-79.1963"/>
</g>
<!-- 3684606199917713863 -->
<g id="node39" class="node">
<title>3684606199917713863</title>
<ellipse fill="none" stroke="#000000" cx="530" cy="-205.4913" rx="26.7961" ry="26.7961"/>
<text text-anchor="middle" x="530" y="-201.7913" font-family="Times,serif" font-size="14.00" fill="#000000">ones</text>
</g>
<!-- 3684606199917713863&#45;&gt;&#45;6875154694323795236 -->
<g id="edge30" class="edge">
<title>3684606199917713863&#45;&gt;&#45;6875154694323795236</title>
<path fill="none" stroke="#000000" d="M529.1802,-232.3239C528.7723,-245.6764 528.2792,-261.8163 527.8652,-275.367"/>
<polygon fill="#000000" stroke="#000000" points="524.3604,-275.4744 527.5533,-285.5766 531.3571,-275.6882 524.3604,-275.4744"/>
</g>
<!-- 8217034027939198708 -->
<g id="node40" class="node">
<title>8217034027939198708</title>
<ellipse fill="none" stroke="#000000" cx="300" cy="-205.4913" rx="26.7961" ry="26.7961"/>
<text text-anchor="middle" x="300" y="-201.7913" font-family="Times,serif" font-size="14.00" fill="#000000">ones</text>
</g>
<!-- 8217034027939198708&#45;&gt;&#45;6875155955518463961 -->
<g id="edge31" class="edge">
<title>8217034027939198708&#45;&gt;&#45;6875155955518463961</title>
<path fill="none" stroke="#000000" d="M299.1802,-232.3239C298.7723,-245.6764 298.2792,-261.8163 297.8652,-275.367"/>
<polygon fill="#000000" stroke="#000000" points="294.3604,-275.4744 297.5533,-285.5766 301.3571,-275.6882 294.3604,-275.4744"/>
</g>
<!-- 7181792515767616883 -->
<g id="node41" class="node">
<title>7181792515767616883</title>
<ellipse fill="none" stroke="#000000" cx="621" cy="-26.6476" rx="26.7961" ry="26.7961"/>
<text text-anchor="middle" x="621" y="-22.9476" font-family="Times,serif" font-size="14.00" fill="#000000">ones</text>
</g>
<!-- 7181792515767616883&#45;&gt;&#45;6875155955517298912 -->
<g id="edge32" class="edge">
<title>7181792515767616883&#45;&gt;&#45;6875155955517298912</title>
<path fill="none" stroke="#000000" d="M621,-53.5021C621,-61.7499 621,-70.8471 621,-79.1771"/>
<polygon fill="#000000" stroke="#000000" points="617.5001,-79.1963 621,-89.1964 624.5001,-79.1964 617.5001,-79.1963"/>
</g>
<!-- &#45;4842026184016932926 -->
<g id="node42" class="node">
<title>&#45;4842026184016932926</title>
<ellipse fill="none" stroke="#000000" cx="765" cy="-26.6476" rx="26.7961" ry="26.7961"/>
<text text-anchor="middle" x="765" y="-22.9476" font-family="Times,serif" font-size="14.00" fill="#000000">ones</text>
</g>
<!-- &#45;4842026184016932926&#45;&gt;&#45;6875155955516133863 -->
<g id="edge33" class="edge">
<title>&#45;4842026184016932926&#45;&gt;&#45;6875155955516133863</title>
<path fill="none" stroke="#000000" d="M765,-53.5021C765,-61.7499 765,-70.8471 765,-79.1771"/>
<polygon fill="#000000" stroke="#000000" points="761.5001,-79.1963 765,-89.1964 768.5001,-79.1964 761.5001,-79.1963"/>
</g>
<!-- &#45;8980465984661061753 -->
<g id="node43" class="node">
<title>&#45;8980465984661061753</title>
<ellipse fill="none" stroke="#000000" cx="405" cy="-26.6476" rx="26.7961" ry="26.7961"/>
<text text-anchor="middle" x="405" y="-22.9476" font-family="Times,serif" font-size="14.00" fill="#000000">ones</text>
</g>
<!-- &#45;8980465984661061753&#45;&gt;&#45;6875152171927467492 -->
<g id="edge34" class="edge">
<title>&#45;8980465984661061753&#45;&gt;&#45;6875152171927467492</title>
<path fill="none" stroke="#000000" d="M405,-53.5021C405,-61.7499 405,-70.8471 405,-79.1771"/>
<polygon fill="#000000" stroke="#000000" points="401.5001,-79.1963 405,-89.1964 408.5001,-79.1964 401.5001,-79.1963"/>
</g>
<!-- 2402334557389839256 -->
<g id="node44" class="node">
<title>2402334557389839256</title>
<ellipse fill="none" stroke="#000000" cx="890" cy="-205.4913" rx="26.7961" ry="26.7961"/>
<text text-anchor="middle" x="890" y="-201.7913" font-family="Times,serif" font-size="14.00" fill="#000000">ones</text>
</g>
<!-- 2402334557389839256&#45;&gt;&#45;6875152171928632541 -->
<g id="edge35" class="edge">
<title>2402334557389839256&#45;&gt;&#45;6875152171928632541</title>
<path fill="none" stroke="#000000" d="M889.1802,-232.3239C888.7723,-245.6764 888.2792,-261.8163 887.8652,-275.367"/>
<polygon fill="#000000" stroke="#000000" points="884.3604,-275.4744 887.5533,-285.5766 891.3571,-275.6882 884.3604,-275.4744"/>
</g>
<!-- 7879368656784758181 -->
<g id="node45" class="node">
<title>7879368656784758181</title>
<ellipse fill="none" stroke="#000000" cx="1001" cy="-26.6476" rx="26.7961" ry="26.7961"/>
<text text-anchor="middle" x="1001" y="-22.9476" font-family="Times,serif" font-size="14.00" fill="#000000">ones</text>
</g>
<!-- 7879368656784758181&#45;&gt;&#45;6875152171925137394 -->
<g id="edge36" class="edge">
<title>7879368656784758181&#45;&gt;&#45;6875152171925137394</title>
<path fill="none" stroke="#000000" d="M1001,-53.5021C1001,-61.7499 1001,-70.8471 1001,-79.1771"/>
<polygon fill="#000000" stroke="#000000" points="997.5001,-79.1963 1001,-89.1964 1004.5001,-79.1964 997.5001,-79.1963"/>
</g>
<!-- 8877910748399248224&#45;&gt;&#45;8696855060251732693 -->
<g id="edge37" class="edge">
<title>8877910748399248224&#45;&gt;&#45;8696855060251732693</title>
<path fill="none" stroke="#000000" d="M62.9476,-249.706C62.143,-258.484 61.3192,-267.4724 60.5804,-275.5337"/>
<polygon fill="#000000" stroke="#000000" points="57.0942,-275.2237 59.6668,-285.5014 64.065,-275.8626 57.0942,-275.2237"/>
</g>
<!-- 7198162067562218799&#45;&gt;&#45;8696855060250567644 -->
<g id="edge39" class="edge">
<title>7198162067562218799&#45;&gt;&#45;8696855060250567644</title>
<path fill="none" stroke="#000000" d="M293.8481,-446.0981C293.2294,-454.7776 292.596,-463.6626 292.0264,-471.6538"/>
<polygon fill="#000000" stroke="#000000" points="288.5164,-471.67 291.2964,-481.8936 295.4987,-472.1678 288.5164,-471.67"/>
</g>
<!-- &#45;2981256171798051042&#45;&gt;&#45;8696855060249402595 -->
<g id="edge41" class="edge">
<title>&#45;2981256171798051042&#45;&gt;&#45;8696855060249402595</title>
<path fill="none" stroke="#000000" d="M441,-249.706C441,-258.3854 441,-267.2704 441,-275.2616"/>
<polygon fill="#000000" stroke="#000000" points="437.5001,-275.5014 441,-285.5014 444.5001,-275.5015 437.5001,-275.5014"/>
</g>
<!-- 5604441113441206961&#45;&gt;&#45;8696853799054733870 -->
<g id="edge43" class="edge">
<title>5604441113441206961&#45;&gt;&#45;8696853799054733870</title>
<path fill="none" stroke="#000000" d="M211,-249.706C211,-258.3854 211,-267.2704 211,-275.2616"/>
<polygon fill="#000000" stroke="#000000" points="207.5001,-275.5014 211,-285.5014 214.5001,-275.5015 207.5001,-275.5014"/>
</g>
<!-- 6733536536329897986&#45;&gt;&#45;8696853799055898919 -->
<g id="edge45" class="edge">
<title>6733536536329897986&#45;&gt;&#45;8696853799055898919</title>
<path fill="none" stroke="#000000" d="M653.3979,-249.706C652.6827,-258.484 651.9504,-267.4724 651.2937,-275.5337"/>
<polygon fill="#000000" stroke="#000000" points="647.8053,-275.2502 650.4816,-285.5014 654.7821,-275.8187 647.8053,-275.2502"/>
</g>
<!-- &#45;929070728018675789&#45;&gt;&#45;8696853799057063968 -->
<g id="edge47" class="edge">
<title>&#45;929070728018675789&#45;&gt;&#45;8696853799057063968</title>
<path fill="none" stroke="#000000" d="M883.8481,-446.0981C883.2294,-454.7776 882.596,-463.6626 882.0264,-471.6538"/>
<polygon fill="#000000" stroke="#000000" points="878.5164,-471.67 881.2964,-481.8936 885.4987,-472.1678 878.5164,-471.67"/>
</g>
<!-- &#45;308569305811333342&#45;&gt;&#45;8696852537857735047 -->
<g id="edge49" class="edge">
<title>&#45;308569305811333342&#45;&gt;&#45;8696852537857735047</title>
<path fill="none" stroke="#000000" d="M523.8481,-446.0981C523.2294,-454.7776 522.596,-463.6626 522.0264,-471.6538"/>
<polygon fill="#000000" stroke="#000000" points="518.5164,-471.67 521.2964,-481.8936 525.4987,-472.1678 518.5164,-471.67"/>
</g>
<!-- &#45;1348127068885521967&#45;&gt;&#45;8696852537856569998 -->
<g id="edge51" class="edge">
<title>&#45;1348127068885521967&#45;&gt;&#45;8696852537856569998</title>
<path fill="none" stroke="#000000" d="M801,-249.706C801,-258.3854 801,-267.2704 801,-275.2616"/>
<polygon fill="#000000" stroke="#000000" points="797.5001,-275.5014 801,-285.5014 804.5001,-275.5015 797.5001,-275.5014"/>
</g>
<!-- &#45;8091894940952885292&#45;&gt;&#45;8696852537860065145 -->
<g id="edge53" class="edge">
<title>&#45;8091894940952885292&#45;&gt;&#45;8696852537860065145</title>
<path fill="none" stroke="#000000" d="M1032.9476,-249.706C1032.143,-258.484 1031.3192,-267.4724 1030.5804,-275.5337"/>
<polygon fill="#000000" stroke="#000000" points="1027.0942,-275.2237 1029.6668,-285.5014 1034.065,-275.8626 1027.0942,-275.2237"/>
</g>
</g>
</svg>
